PathFileType	4	(X/Y/Z)	c:/Users/goper/Files/vsCode/490R/osim_files/A02/A02_PWS_03.trc
DataRate	CameraRate	NumFrames	NumMarkers	Units                	OrigDataRate	OrigDataStartFrame	OrigNumFrames
250.00	250.00	7	36	mm	250.0	1783	2852
                Frame#	Time	Mobility_markerset:LPSIS			Mobility_markerset:LASIS			Mobility_markerset:LTH1			Mobility_markerset:LTH2			Mobility_markerset:LTH3			Mobility_markerset:LTH4			Mobility_markerset:LLFE			Mobility_markerset:LMFE			Mobility_markerset:LSH1			Mobility_markerset:LSH2			Mobility_markerset:LSH3			Mobility_markerset:LSH4			Mobility_markerset:LLMAL			Mobility_markerset:LMMAL			Mobility_markerset:LCAL			Mobility_markerset:LMTP5			Mobility_markerset:LTOE			Mobility_markerset:LMTP1			Mobility_markerset:RPSIS			Mobility_markerset:RASIS			Mobility_markerset:RTH1			Mobility_markerset:RTH2			Mobility_markerset:RTH3			Mobility_markerset:RTH4			Mobility_markerset:RLFE			Mobility_markerset:RMFE			Mobility_markerset:RSH1			Mobility_markerset:RSH2			Mobility_markerset:RSH3			Mobility_markerset:RSH4			Mobility_markerset:RLMAL			Mobility_markerset:RMMAL			Mobility_markerset:RCAL			Mobility_markerset:RMTP1			Mobility_markerset:RTOE			Mobility_markerset:RMTP5		
		X1	Y1	Z1	X2	Y2	Z2	X3	Y3	Z3	X4	Y4	Z4	X5	Y5	Z5	X6	Y6	Z6	X7	Y7	Z7	X8	Y8	Z8	X9	Y9	Z9	X10	Y10	Z10	X11	Y11	Z11	X12	Y12	Z12	X13	Y13	Z13	X14	Y14	Z14	X15	Y15	Z15	X16	Y16	Z16	X17	Y17	Z17	X18	Y18	Z18	X19	Y19	Z19	X20	Y20	Z20	X21	Y21	Z21	X22	Y22	Z22	X23	Y23	Z23	X24	Y24	Z24	X25	Y25	Z25	X26	Y26	Z26	X27	Y27	Z27	X28	Y28	Z28	X29	Y29	Z29	X30	Y30	Z30	X31	Y31	Z31	X32	Y32	Z32	X33	Y33	Z33	X34	Y34	Z34	X35	Y35	Z35	X36	Y36	Z36

1783	7.12800	-1955.30432	982.31128	337.18347	-2096.30664	943.90540	418.14175	-2093.56958	704.79193	476.58350	-2105.39697	661.22504	469.83310	-2037.93298	684.79718	458.38031	0.00000	0.00000	0.00000	-2147.30371	490.41711	437.26358	-2169.76660	463.78949	318.87146	-2058.36377	462.96683	434.99673	-2029.78491	428.61566	440.32471	-2102.18970	421.89517	442.45093	-2068.84473	392.20428	447.97461	-1896.72009	210.20056	408.83081	-1911.20422	215.20602	327.24182	-1835.00940	245.12199	369.32529	-1919.14636	94.86813	405.15549	-1972.15466	89.16354	339.43051	-1929.51562	104.01676	293.56387	-1966.58459	993.74536	235.31804	0.00000	0.00000	0.00000	-2079.33569	632.37512	162.79613	-2086.85962	588.81842	164.20366	-2140.65503	635.77386	163.52412	-2138.40283	592.77740	162.75055	-2107.07275	476.63870	156.88622	-2129.37305	482.17410	289.15103	-2156.59302	293.24072	177.81383	-2154.31445	246.64859	186.00652	-2097.57422	292.00693	181.98149	-2102.20581	246.91429	192.64830	-2105.46265	88.31478	195.47145	-2118.22778	94.32453	280.94070	-2055.41797	69.99782	241.46011	-2243.80396	61.19834	271.71820	-2264.14624	73.58829	236.50316	-2233.95117	58.06089	180.49699
1784	7.13200	-1959.97571	982.80701	337.27679	-2101.02368	944.53198	417.91492	-2100.04980	705.93701	476.26123	-2112.27856	662.55206	469.43625	-2044.72327	685.41284	458.45053	0.00000	0.00000	0.00000	-2155.65698	492.05911	436.57236	-2178.69141	465.84641	318.22113	-2066.94238	463.51718	433.91138	-2038.60413	428.58847	439.01566	-2110.91382	423.07071	441.81601	-2078.25635	392.93732	447.30167	-1909.31677	207.72078	408.49054	-1923.96228	212.56903	326.82935	-1846.80518	240.61060	368.30365	-1935.05457	93.62276	405.99225	-1988.58618	88.49255	340.37210	-1945.58130	101.66969	294.21057	-1970.97229	994.24835	235.27698	0.00000	0.00000	0.00000	-2082.51367	632.71259	162.58214	-2089.65869	589.14868	164.03609	-2143.75220	635.81738	163.32022	-2141.61133	592.85065	162.69104	-2109.29858	476.86682	156.73265	-2131.70386	482.41928	289.01285	-2157.83545	293.24451	177.73923	-2155.38574	246.67462	185.96748	-2098.22510	292.46280	181.63135	-2103.38916	247.10867	192.64041	-2105.65698	88.48641	195.50467	-2118.39795	94.43148	280.91245	-2055.55127	70.17616	241.51407	-2243.93823	61.02066	271.75308	-2264.29053	73.32509	236.57832	-2233.84424	57.98058	180.47948
1785	7.13600	-1964.48633	983.22314	337.25116	-2105.54834	944.92609	417.48563	-2106.55859	707.05945	475.95612	0.00000	0.00000	0.00000	-2051.06030	685.91742	458.24142	-2076.80835	647.96857	468.96509	-2163.85742	493.75119	435.79602	-2187.41992	467.64392	317.69427	-2075.59961	464.11163	432.91122	-2047.53979	428.50012	437.74832	-2119.89624	424.26773	441.18594	-2087.66968	393.61615	446.72507	-1922.24683	205.13667	408.11725	-1936.97131	209.87888	326.35025	-1858.66675	235.91347	367.36270	-1951.15430	91.80386	406.43265	-2005.14880	87.88268	341.32498	-1961.77576	99.23212	294.89471	-1975.42480	994.63647	235.22591	0.00000	0.00000	0.00000	-2085.60498	633.04193	162.39247	-2092.58374	589.42206	163.85545	-2146.87500	635.81732	163.08264	-2144.51904	592.90106	162.51598	-2111.47095	477.27539	156.54547	-2133.90796	482.52853	288.87604	-2159.25635	293.21976	177.71028	-2156.44751	246.64143	185.91429	-2099.98608	292.56259	181.85518	-2104.54810	247.10846	192.79800	-2105.80396	88.65672	195.54434	-2118.49878	94.53524	280.82065	-2055.63623	70.38419	241.55319	-2244.10571	60.85804	271.76770	-2264.47461	73.09905	236.60220	-2233.96313	57.83837	180.53305
1786	7.14000	-1968.92310	983.60992	337.04321	-2110.46655	945.34338	417.22815	-2112.98828	708.16101	475.67126	0.00000	0.00000	0.00000	-2057.60498	686.54681	458.21252	-2083.72046	649.17206	468.70844	-2172.05176	495.38724	435.14514	-2195.94409	469.37909	317.07971	-2083.28882	463.95996	430.73846	-2056.31567	428.24905	436.38269	-2128.97461	425.50259	440.55524	-2097.02881	394.23019	446.09726	-1935.26343	202.39790	407.71588	-1950.14050	207.00250	325.90540	-1870.83582	231.09447	366.36639	-1967.36353	90.17041	407.15399	-2021.73132	87.24042	342.24292	-1978.14148	96.80260	295.55142	-1979.83215	994.97986	235.22537	0.00000	0.00000	0.00000	-2088.74097	633.37915	162.19337	-2095.44141	589.68237	163.69328	-2150.04077	635.82855	162.85762	-2147.31348	592.90637	162.31219	-2113.71973	477.49939	156.38383	-2136.48950	482.64233	288.72922	-2160.42627	293.12170	177.61351	-2157.49536	246.62433	185.85208	-2101.06543	292.93802	181.85510	-2105.49536	247.67979	192.48972	-2106.02856	88.77834	195.58727	-2118.70386	94.69572	280.79910	-2055.75879	70.58408	241.56142	-2244.21484	60.68296	271.76971	-2264.65137	72.83427	236.65260	-2234.10986	57.68869	180.55911
1787	7.14400	-1973.52734	983.89075	337.02185	-2114.94946	945.81079	416.70435	-2119.39624	709.19861	475.34177	0.00000	0.00000	0.00000	-2064.14990	687.09436	458.26508	-2090.27368	650.18463	468.38071	-2180.14600	496.89548	434.33524	-2204.45093	471.19501	316.43021	-2091.57178	464.09122	429.30280	-2065.13306	427.95120	435.07224	-2137.89575	426.64142	439.83810	-2106.37524	394.73019	445.40045	-1948.47229	199.59273	407.37482	-1963.50671	204.04913	325.41403	-1883.26160	226.16299	365.28723	-1983.66626	88.42451	407.96487	-2038.43604	86.61609	343.20242	-1994.75928	94.42594	296.19894	-1984.26416	995.27429	235.17740	0.00000	0.00000	0.00000	-2091.75757	633.67377	162.04204	-2098.35229	589.93274	163.52664	-2153.10376	635.82001	162.64482	-2150.21118	592.92218	162.14180	-2116.04541	477.47455	156.37054	-2138.69800	482.77332	288.60291	-2161.73755	293.10229	177.54671	-2158.46997	246.60516	185.80623	-2102.70142	293.11072	181.68875	-2106.65454	247.75644	192.18808	-2106.16675	88.89807	195.64224	-2118.92505	94.86361	280.75314	-2055.81470	70.80167	241.55072	-2244.36475	60.51559	271.75967	-2264.80713	72.52313	236.69543	-2234.23193	57.53226	180.57486
1788	7.14800	-1978.02087	984.18610	337.14685	-2119.64429	945.98962	416.73648	-2125.81348	710.23102	475.05597	0.00000	0.00000	0.00000	-2070.74854	687.68884	458.43182	-2096.94312	651.23102	468.03839	-2188.12061	498.40433	433.59830	-2212.78296	472.94806	315.85037	-2099.81274	464.18826	427.93958	-2074.01025	427.46130	433.85257	-2146.53833	427.58859	439.01834	-2115.68384	395.12695	444.71356	-1961.74048	196.72070	406.95267	-1977.05591	201.02238	324.93958	-1895.81250	221.02356	364.18625	-2000.21448	86.97634	408.51123	-2055.43018	86.12032	344.12033	-2011.42688	92.00663	296.80640	-1988.75537	995.52008	235.37418	0.00000	0.00000	0.00000	-2094.88452	633.99060	161.89160	-2101.23242	590.16663	163.34610	-2156.26196	635.79034	162.43736	-2153.05371	592.92627	161.97908	-2118.13403	477.70734	156.06773	-2141.00806	482.91562	288.48267	-2162.98413	293.03265	177.47862	-2159.58105	246.59218	185.75845	-2103.71582	293.34274	181.76283	-2107.61621	247.88760	192.63486	-2106.27051	89.08025	195.78618	-2119.06641	94.95878	280.72473	-2056.15088	70.85194	241.79788	-2244.51733	60.29780	271.75641	-2264.97144	72.21865	236.75056	-2234.58643	57.34967	180.63705
1789	7.15200	-1982.55957	984.31696	337.10519	-2124.44678	946.55609	416.02060	-2132.09521	711.25616	474.71295	-2149.46582	673.90070	482.10034	-2077.08472	688.07733	458.30167	-2103.75293	652.30109	467.73859	-2196.02124	499.90869	432.86227	-2220.88696	474.62497	315.12418	-2107.95459	464.07770	426.56537	-2082.71240	426.85559	432.60770	-2155.27100	428.27496	438.44858	-2125.03784	395.48398	444.00717	-1975.21594	193.67642	406.48734	-1990.69324	197.88681	324.41837	-1908.47778	215.78966	363.06400	-2016.75403	85.39734	409.17892	-2072.07275	85.91924	344.94705	-2028.41931	89.74867	297.49094	-1993.08655	995.72412	235.07448	0.00000	0.00000	0.00000	-2097.95239	634.22980	161.72287	-2104.10278	590.40515	163.20541	-2159.41455	635.81140	162.20836	-2155.92432	592.88690	161.78535	-2120.39795	477.87784	155.95403	-2143.22827	482.94034	288.39987	-2164.34595	293.01382	177.42459	-2160.65698	246.54305	185.71449	-2104.94336	293.62131	181.20634	-2108.49927	248.43416	192.28702	-2106.38599	89.32937	196.19023	-2119.22632	95.04366	280.68552	-2056.32056	71.06541	241.82018	-2244.66138	60.09855	271.75690	-2265.10596	71.95123	236.76842	-2234.71313	57.21322	180.64494
